<svg xmlns="http://www.w3.org/2000/svg" width="512" height="512" viewBox="0 0 512 512">
  <defs>
    <linearGradient id="bg" x1="0%" y1="0%" x2="100%" y2="100%">
      <stop offset="0%" stop-color="#059669"/>
      <stop offset="100%" stop-color="#10b981"/>
    </linearGradient>
  </defs>
  <rect width="512" height="512" rx="80" fill="url(#bg)"/>
  <g transform="translate(256,256) scale(2.2)">
    <path d="M0-40c-24-32-72-24-72 16 0 40 72 88 72 88s72-48 72-88c0-40-48-48-72-16z" fill="white" opacity="0.95"/>
    <path d="M10-4c16-24 40-16 40 8 0 20-40 44-40 44s-40-24-40-44c0-24 24-32 40-8z" fill="#34d399" opacity="0.8"/>
  </g>
</svg>
